<svg width="113" height="35" viewBox="0 0 113 35" fill="none" xmlns="http://www.w3.org/2000/svg">
<path d="M110.1 31.27C110.29 31.27 110.39 31.15 110.39 30.96C110.39 30.77 110.3 30.65 110.1 30.65H109.57V31.27H110.1ZM111.15 32.71H110.34L109.94 31.91H109.57V32.71H108.85V29.98H110.15C110.78 29.98 111.13 30.37 111.13 30.95C111.13 31.33 110.94 31.61 110.64 31.76L111.15 32.71ZM109.85 29.44C108.78 29.44 107.91 30.33 107.91 31.42C107.91 32.51 108.78 33.4 109.85 33.4C110.92 33.4 111.79 32.51 111.79 31.42C111.79 30.33 110.93 29.44 109.85 29.44ZM109.85 34.09C108.37 34.09 107.18 32.89 107.18 31.42C107.18 29.95 108.38 28.75 109.85 28.75C111.32 28.75 112.52 29.95 112.52 31.42C112.52 32.9 111.32 34.09 109.85 34.09ZM99.34 18.36C99.29 16.35 97.51 14.93 95.54 14.93C91.19 14.93 90.51 18.63 90.51 21.92C90.51 24.98 91.84 28.14 95.13 28.14C97.83 28.14 99.2 26.59 99.57 24.07H107.12C106.44 30.43 101.49 34.08 95.18 34.08C88.05 34.08 82.75 29.19 82.75 21.92C82.75 14.37 87.55 8.97999 95.18 8.97999C101.08 8.97999 106.34 12.09 106.89 18.36H99.34ZM72.38 33.41H80.15V9.66999H72.38V33.41ZM80.15 0.759995H72.38V6.70999H80.15V0.759995ZM62.13 33.41H53.17L45.26 9.67999H53.35L57.7 25.37H57.79L62.18 9.67999H70.09L62.13 33.41ZM35.44 33.41H43.22V0.759995H35.44V33.41ZM13.17 21.24H20.58L16.97 9.80999H16.88L13.17 21.24ZM12.62 0.759995H21.26L33.47 33.41H24.6L22.59 27.56H11.2L9.14 33.41H0.410004L12.62 0.759995Z" fill="#737373"/>
</svg>
