<svg class="svgs logo" version="1.1" id="alvic-logo" xmlns="http://www.w3.org/2000/svg"
  xmlns:xlink="http://www.w3.org/1999/xlink" x="0px" y="0px" viewBox="0 0 193 70"
  style="enable-background:new 0 0 193 70;" xml:space="preserve">
  <style type="text/css">
    .alcircle {
      fill: #1CAFE6;
    }

    .alline {
      fill: #FFFFFF;
    }

    .altext {
      fill: #737373;
    }
  </style>
  <style class="darkreader darkreader--sync" media="screen"></style>
  <g>
    <path id="alcircle" class="alcircle" d="M70.48,35c0-19.33-15.67-35-35-35c-19.33,0-35,15.67-35,35c0,19.33,15.67,35,35,35
		C54.81,70,70.48,54.33,70.48,35"></path>
    <polygon id="alline2" class="alline" points="37.8,24.8 30.04,45.51 21.75,45.51 29.51,24.8 	"></polygon>
    <polygon id="alline" class="alline" points="49.19,24.8 41.42,45.51 33.13,45.51 40.9,24.8 	"></polygon>
    <path id="alvic" class="altext" d="M190.1,47.27c0.19,0,0.29-0.12,0.29-0.31c0-0.19-0.09-0.31-0.29-0.31h-0.53v0.62H190.1z
		 M191.15,48.71h-0.81l-0.4-0.8h-0.37v0.8h-0.72v-2.73h1.3c0.63,0,0.98,0.39,0.98,0.97c0,0.38-0.19,0.66-0.49,0.81L191.15,48.71z
		 M189.85,45.44c-1.07,0-1.94,0.89-1.94,1.98c0,1.09,0.87,1.98,1.94,1.98c1.07,0,1.94-0.89,1.94-1.98
		C191.79,46.33,190.93,45.44,189.85,45.44 M189.85,50.09c-1.48,0-2.67-1.2-2.67-2.67c0-1.47,1.2-2.67,2.67-2.67
		c1.47,0,2.67,1.2,2.67,2.67C192.52,48.9,191.32,50.09,189.85,50.09 M179.34,34.36c-0.05-2.01-1.83-3.43-3.8-3.43
		c-4.35,0-5.03,3.7-5.03,6.99c0,3.06,1.33,6.22,4.62,6.22c2.7,0,4.07-1.55,4.44-4.07h7.55c-0.68,6.36-5.63,10.01-11.94,10.01
		c-7.13,0-12.43-4.89-12.43-12.16c0-7.55,4.8-12.94,12.43-12.94c5.9,0,11.16,3.11,11.71,9.38H179.34z M152.38,49.41h7.77V25.67
		h-7.77V49.41z M160.15,16.76h-7.77v5.95h7.77V16.76z M142.13,49.41h-8.96l-7.91-23.73h8.09l4.35,15.69h0.09l4.39-15.69h7.91
		L142.13,49.41z M115.44,49.41h7.78V16.76h-7.78V49.41z M93.17,37.24h7.41l-3.61-11.43h-0.09L93.17,37.24z M92.62,16.76h8.64
		l12.21,32.65h-8.87l-2.01-5.85H91.2l-2.06,5.85h-8.73L92.62,16.76z"></path>
  </g>
</svg>
